<svg width="24" height="24" viewBox="0 0 24 24" fill="none" xmlns="http://www.w3.org/2000/svg">
<path d="M11.7148 14.2544C15.0784 14.2544 17.9507 14.7877 17.9511 16.9214C17.9511 19.0546 15.0971 19.6079 11.7148 19.6079C8.35089 19.6079 5.47845 19.0741 5.47845 16.9409C5.47876 14.8071 8.33265 14.2544 11.7148 14.2544ZM6.43645 12.9702C6.45577 12.9729 6.46595 12.9867 6.4677 12.9946C6.47032 13.0079 6.46492 13.0274 6.44036 13.0415C5.84503 13.3374 3.54805 14.6242 3.83684 17.3364C3.84888 17.4544 3.75602 17.555 3.63958 17.5386C3.07425 17.4573 1.61911 17.1428 1.1679 16.1636C0.917776 15.6454 0.917883 15.0451 1.1679 14.5269C1.46286 13.8955 2.17438 13.4612 3.25677 13.2476C3.76863 13.1231 5.14981 12.9464 6.43645 12.9702ZM17.0937 12.9692C18.3793 12.9455 19.7612 13.1222 20.2724 13.2476C21.3547 13.4603 22.0673 13.8946 22.3622 14.5259C22.6115 15.044 22.6114 15.6453 22.3622 16.1626C21.911 17.1418 20.4559 17.4564 19.8906 17.5376C19.774 17.555 19.68 17.4537 19.6923 17.3364C19.9811 14.6231 17.6841 13.3363 17.0898 13.0405C17.0644 13.0273 17.0588 13.007 17.0615 12.9946C17.0634 12.9858 17.0746 12.9719 17.0937 12.9692ZM11.7148 3.92139C14.0051 3.92139 15.8417 5.76728 15.8417 8.07178C15.8415 10.3752 14.005 12.2222 11.7148 12.2222C9.4246 12.2222 7.58801 10.3752 7.58782 8.07178C7.58782 5.76729 9.42448 3.9214 11.7148 3.92139ZM6.21184 4.61377C6.45232 4.61378 6.68247 4.63915 6.90716 4.68506C6.93673 4.6921 6.96963 4.70683 6.98724 4.73291C7.00743 4.76646 6.99268 4.81217 6.97161 4.84131C6.30721 5.77806 5.92474 6.92059 5.92474 8.146C5.92474 9.32031 6.27509 10.4143 6.88958 11.3237C6.95265 11.4173 6.89644 11.5435 6.78509 11.563C6.63059 11.5904 6.472 11.6045 6.31048 11.6089C4.6998 11.6511 3.25381 10.6083 2.85442 9.03857C2.26199 6.70677 3.99972 4.61377 6.21184 4.61377ZM17.3173 4.61377C19.5294 4.61386 21.2664 6.70774 20.6747 9.03955C20.2752 10.6092 18.8294 11.6513 17.2187 11.6089C17.0573 11.6045 16.8986 11.5895 16.745 11.563C16.6336 11.5436 16.5774 11.4173 16.6406 11.3237C17.2549 10.4144 17.6054 9.32014 17.6054 8.146C17.6053 6.92064 17.222 5.778 16.5575 4.84131C16.5366 4.81218 16.521 4.76731 16.5419 4.73389C16.5595 4.70652 16.5923 4.69212 16.623 4.68506C16.8468 4.63917 17.0769 4.61377 17.3173 4.61377Z" fill="#353535"/>
</svg>
