<svg width="24" height="24" viewBox="0 0 24 24" fill="none" xmlns="http://www.w3.org/2000/svg">
<path d="M15.1471 3.70605C15.1079 3.95114 15.0875 4.19632 15.0875 4.44141C15.0875 6.64716 16.8721 8.43045 19.068 8.43066C19.313 8.43066 19.5486 8.40247 19.7936 8.36328V16.2734C19.7936 19.5979 17.833 21.5693 14.4996 21.5693H7.25549C3.92127 21.5693 1.96057 19.5979 1.96057 16.2734V9.01953C1.96071 5.68646 3.92139 3.70611 7.25549 3.70605H15.1471ZM15.3434 9.66699C15.078 9.63778 14.8147 9.75543 14.6569 9.9707L12.2848 13.04L9.56799 10.9023C9.40139 10.7751 9.20536 10.7255 9.0094 10.7461C8.81436 10.7755 8.63776 10.8822 8.51917 11.0391L5.61877 14.8145L5.55823 14.9023C5.39157 15.2151 5.4702 15.6173 5.76428 15.834C5.90154 15.9222 6.04879 15.9814 6.21545 15.9814C6.44189 15.9912 6.65635 15.8718 6.79358 15.6865L9.25452 12.5195L12.0485 14.6182L12.1373 14.6758C12.451 14.8423 12.8425 14.7648 13.068 14.4697L15.902 10.8145L15.8629 10.834C16.0196 10.6183 16.0488 10.3436 15.941 10.0986C15.8342 9.85353 15.5973 9.6866 15.3434 9.66699ZM19.2057 1.96094C20.5095 1.96094 21.5678 3.01945 21.568 4.32324C21.568 5.62716 20.5096 6.68652 19.2057 6.68652C17.9018 6.68652 16.8434 5.62716 16.8434 4.32324C16.8435 3.01945 17.9019 1.96094 19.2057 1.96094Z" fill="#353535"/>
</svg>
