<svg width="25" height="25" viewBox="0 0 25 25" fill="none" xmlns="http://www.w3.org/2000/svg">
<path d="M9.89587 15.6411C14.132 15.6411 17.7083 16.3378 17.7084 19.0298C17.7084 21.7219 14.1092 22.396 9.89587 22.396C5.65963 22.396 2.08337 21.6974 2.08337 19.0063C2.08365 16.3145 5.68168 15.6411 9.89587 15.6411ZM19.7904 7.81201C20.3073 7.81201 20.7269 8.23911 20.7269 8.76221V9.98779H21.9799C22.4957 9.98779 22.9164 10.4139 22.9164 10.937C22.9164 11.4601 22.4957 11.8862 21.9799 11.8862H20.7269V13.1128C20.7269 13.6359 20.3073 14.062 19.7904 14.062C19.2747 14.0619 18.8539 13.6358 18.8539 13.1128V11.8862H17.6029C17.0861 11.8861 16.6664 11.46 16.6664 10.937C16.6664 10.414 17.0861 9.9879 17.6029 9.98779H18.8539V8.76221C18.8539 8.23918 19.2747 7.81212 19.7904 7.81201ZM9.89587 2.604C12.7652 2.60403 15.0648 4.93394 15.0648 7.84033C15.0648 10.7468 12.7652 13.0766 9.89587 13.0767C7.02653 13.0767 4.72595 10.7468 4.72595 7.84033C4.72602 4.93392 7.02657 2.604 9.89587 2.604Z" fill="#353535"/>
</svg>
