<svg width="23" height="23" viewBox="0 0 23 23" fill="none" xmlns="http://www.w3.org/2000/svg">
<path opacity="0.4" d="M14.7753 1.83838H17.8874C19.1763 1.83838 20.2206 2.89155 20.2206 4.19129V7.32967C20.2206 8.62941 19.1763 9.68258 17.8874 9.68258H14.7753C13.4865 9.68258 12.4421 8.62941 12.4421 7.32967V4.19129C12.4421 2.89155 13.4865 1.83838 14.7753 1.83838Z" fill="#2E2E2E"/>
<path d="M7.28357 12.3765C8.57236 12.3765 9.61651 13.4293 9.61658 14.729V17.8677C9.61649 19.1664 8.57235 20.2202 7.28357 20.2202H4.17126C2.88255 20.2201 1.83834 19.1664 1.83826 17.8677V14.729C1.83833 13.4294 2.88254 12.3766 4.17126 12.3765H7.28357ZM17.8871 12.3765C19.1759 12.3765 20.221 13.4293 20.2211 14.729V17.8677C20.221 19.1665 19.1759 20.2202 17.8871 20.2202H14.7758C13.487 20.2202 12.4419 19.1665 12.4418 17.8677V14.729C12.4418 13.4293 13.4869 12.3765 14.7758 12.3765H17.8871ZM7.28357 1.83838C8.57229 1.83838 9.61638 2.89136 9.61658 4.19092V7.32959C9.61658 8.62932 8.57242 9.68212 7.28357 9.68213H4.17126C2.8825 9.68202 1.83826 8.62926 1.83826 7.32959V4.19092C1.83845 2.89142 2.88263 1.83848 4.17126 1.83838H7.28357Z" fill="#2E2E2E"/>
</svg>
