<svg width="18" height="20" viewBox="0 0 18 20" fill="none" xmlns="http://www.w3.org/2000/svg">
<path d="M6.37351 18.0424V15.2395C6.37351 14.524 6.95778 13.9439 7.67852 13.9439H10.3132C10.6593 13.9439 10.9912 14.0804 11.236 14.3234C11.4807 14.5664 11.6182 14.8959 11.6182 15.2395V18.0424C11.616 18.3399 11.7335 18.6259 11.9446 18.837C12.1557 19.0481 12.443 19.1668 12.7427 19.1668H14.5401C15.3796 19.169 16.1855 18.8394 16.7799 18.2509C17.3742 17.6624 17.7083 16.8632 17.7083 16.0298V8.04478C17.7083 7.37158 17.4077 6.73302 16.8875 6.30111L10.7728 1.45304C9.70915 0.603011 8.18514 0.630456 7.15323 1.51823L1.17805 6.30111C0.633305 6.72029 0.307716 7.36075 0.291626 8.04478V16.0217C0.291626 17.7587 1.71006 19.1668 3.45978 19.1668H5.21622C5.83858 19.1668 6.34437 18.6684 6.34888 18.0505L6.37351 18.0424Z" fill="white"/>
</svg>
