<svg width="23" height="23" viewBox="0 0 23 23" fill="none" xmlns="http://www.w3.org/2000/svg">
<path fill-rule="evenodd" clip-rule="evenodd" d="M20.0251 9.68642C19.9006 9.80732 19.7317 9.8764 19.5539 9.8764C18.8962 9.8764 18.3628 10.3945 18.3628 11.0249C18.3628 11.6596 18.8899 12.1751 19.5415 12.182C19.9086 12.1855 20.2206 12.4342 20.2206 12.7908V15.0058C20.2206 16.8701 18.665 18.3822 16.745 18.3822H13.8472C13.5477 18.3822 13.305 18.1464 13.305 17.8554V15.9902C13.305 15.6275 13.0117 15.3425 12.6383 15.3425C12.2739 15.3425 11.9717 15.6275 11.9717 15.9902V17.8554C11.9717 18.1464 11.729 18.3822 11.4303 18.3822H5.31384C3.40271 18.3822 1.83826 16.871 1.83826 15.0058V12.7908C1.83826 12.4342 2.15026 12.1855 2.51737 12.182C3.16982 12.1751 3.69605 11.6596 3.69605 11.0249C3.69605 10.4118 3.18049 9.94548 2.50493 9.94548C2.32715 9.94548 2.15826 9.8764 2.03381 9.75551C1.90937 9.63461 1.83826 9.47054 1.83826 9.29784V7.0613C1.83826 5.19953 3.40627 3.67627 5.32273 3.67627H11.4303C11.729 3.67627 11.9717 3.91201 11.9717 4.20302V6.41365C11.9717 6.7677 12.2739 7.0613 12.6383 7.0613C13.0117 7.0613 13.305 6.7677 13.305 6.41365V4.20302C13.305 3.91201 13.5477 3.67627 13.8472 3.67627H16.745C18.665 3.67627 20.2206 5.18744 20.2206 7.05266V9.22875C20.2206 9.40146 20.1495 9.56553 20.0251 9.68642ZM12.6383 13.6673C13.0116 13.6673 13.305 13.3737 13.305 13.0196V9.56551C13.305 9.21146 13.0116 8.91786 12.6383 8.91786C12.2739 8.91786 11.9716 9.21146 11.9716 9.56551V13.0196C11.9716 13.3737 12.2739 13.6673 12.6383 13.6673Z" fill="#353535"/>
</svg>
